<?xml version="1.0"?>
<svg xmlns="http://www.w3.org/2000/svg" xmlns:xlink="http://www.w3.org/1999/xlink" xmlns:svgjs="http://svgjs.com/svgjs" version="1.1" width="512" height="512" x="0" y="0" viewBox="0 0 512.052 512.052" style="enable-background:new 0 0 512 512" xml:space="preserve" class=""><g><g xmlns="http://www.w3.org/2000/svg" id="XMLID_1101_"><g id="XMLID_400_"><path id="XMLID_437_" d="m212.624 349.119h-51.708l-15.851-48.89c-3.651-11.261-13.653-18.532-25.488-18.532-.012 0-.024 0-.036 0-11.85.015-21.85 7.314-25.477 18.594l-15.701 48.828h-51.51c-11.846 0-21.854 7.283-25.498 18.555-3.644 11.271.208 23.035 9.812 29.968l41.792 30.173-15.979 49.039c-3.669 11.258.152 23.028 9.732 29.985 4.785 3.475 10.266 5.211 15.747 5.211 5.494 0 10.987-1.746 15.778-5.236l41.7-30.382 41.489 30.154c9.583 6.965 21.96 6.957 31.535-.018 9.573-6.976 13.373-18.756 9.681-30.011l-15.982-48.717 41.694-30.231c9.58-6.946 13.41-18.707 9.76-29.962-3.651-11.255-13.657-18.528-25.49-18.528zm3.99 32.299-47.6 34.513c-3.519 2.551-4.986 7.083-3.632 11.213l18.256 55.649c1.392 4.241-1.253 6.736-2.455 7.611-1.201.875-4.387 2.629-7.999.005l-47.375-34.433c-3.509-2.55-8.261-2.548-11.768.006l-47.581 34.668c-3.607 2.627-6.793.88-7.996.006-1.202-.874-3.851-3.363-2.469-7.606l18.24-55.975c1.347-4.132-.13-8.662-3.654-11.206l-47.707-34.444c-3.619-2.613-2.946-6.186-2.489-7.601.458-1.415 2.004-4.707 6.468-4.707h58.8c4.344 0 8.19-2.804 9.52-6.939l17.932-55.767c1.367-4.251 4.975-4.714 6.463-4.716h.009c1.493 0 5.091.461 6.465 4.701l18.093 55.806c1.337 4.124 5.178 6.916 9.513 6.916h58.979c4.46 0 6.007 3.287 6.466 4.7.455 1.414 1.132 4.983-2.479 7.6z" fill="#4b4f4e" data-original="#000000" style="" class=""/><path id="XMLID_446_" d="m400.357 152.651c1.371 8.663 7.855 15.138 16.52 16.498 1.087.171 2.165.254 3.229.254 7.414 0 14.086-4.054 17.547-10.896l16.076-31.773 35.299 5.626c8.658 1.381 16.814-2.773 20.794-10.575 3.981-7.804 2.551-16.849-3.643-23.044l-25.379-25.378 16.229-31.8c3.987-7.814 2.552-16.867-3.659-23.062-6.212-6.196-15.266-7.609-23.072-3.604l-31.692 16.271-25.293-25.293c-6.201-6.2-15.252-7.628-23.061-3.635-7.808 3.993-11.949 12.167-10.552 20.825l5.704 35.332-31.915 16.227c-7.814 3.973-11.976 12.135-10.602 20.793 1.373 8.657 7.855 15.13 16.516 16.489l35.388 5.557zm.615-79.732c3.874-1.97 6.033-6.217 5.34-10.508l-6.78-42.033 30.085 30.085c3.072 3.071 7.774 3.81 11.639 1.825l37.728-19.363-19.302 37.822c-1.971 3.861-1.228 8.551 1.836 11.617l30.158 30.165-42.001-6.693c-4.295-.683-8.534 1.483-10.497 5.361l-19.145 37.826-6.624-41.872c-.678-4.285-4.04-7.644-8.326-8.316l-42.075-6.612z" fill="#4b4f4e" data-original="#000000" style="" class=""/><path id="XMLID_447_" d="m292.063 98.449c-1.912-5.182-7.662-7.835-12.843-5.921-5.182 1.912-7.833 7.662-5.921 12.843 12.815 34.739 4.187 74.095-21.984 100.265-28.893 28.894-75.906 28.894-104.799 0-10.82-10.819-16.778-25.205-16.778-40.505s5.958-29.686 16.778-40.506c8.277-8.278 19.283-12.836 30.99-12.836 11.706 0 22.712 4.559 30.99 12.837 12.891 12.89 12.891 33.865.001 46.755-9.533 9.533-25.044 9.532-34.577 0-3.906-3.905-10.236-3.905-14.143 0-3.905 3.905-3.905 10.237 0 14.143 17.33 17.33 45.529 17.331 62.861 0 20.688-20.689 20.688-54.352 0-75.041-12.056-12.055-28.085-18.694-45.133-18.694-17.049 0-33.077 6.639-45.133 18.694-14.597 14.597-22.636 34.005-22.636 54.648s8.039 40.051 22.636 54.648c18.348 18.348 42.441 27.521 66.542 27.518 24.095-.002 48.198-9.175 66.542-27.518 31.672-31.67 42.115-79.295 26.607-121.33z" fill="#4b4f4e" data-original="#000000" style="" class=""/><path id="XMLID_451_" d="m405.356 410.03c-20.953 0-38 17.047-38 38s17.047 38 38 38 38-17.047 38-38-17.046-38-38-38zm0 56c-9.925 0-18-8.075-18-18s8.075-18 18-18 18 8.075 18 18-8.075 18-18 18z" fill="#4b4f4e" data-original="#000000" style="" class=""/><path id="XMLID_454_" d="m480.281 246.03c-17.503 0-31.742 14.239-31.742 31.742s14.239 31.743 31.742 31.743 31.742-14.24 31.742-31.743-14.239-31.742-31.742-31.742zm0 43.485c-6.475 0-11.742-5.268-11.742-11.743s5.268-11.742 11.742-11.742 11.742 5.268 11.742 11.742c0 6.475-5.267 11.743-11.742 11.743z" fill="#4b4f4e" data-original="#000000" style="" class=""/><path id="XMLID_1123_" d="m38.023 76.03c20.953 0 38-17.047 38-38s-17.047-38-38-38-38 17.047-38 38 17.047 38 38 38zm0-56c9.925 0 18 8.075 18 18s-8.075 18-18 18-18-8.075-18-18 8.076-18 18-18z" fill="#4b4f4e" data-original="#000000" style="" class=""/><path id="XMLID_1125_" d="m344.023 206.03c-5.522 0-10 4.477-10 10v13.334c0 5.523 4.478 10 10 10 5.523 0 10-4.477 10-10v-13.334c0-5.523-4.477-10-10-10z" fill="#4b4f4e" data-original="#000000" style="" class=""/><path id="XMLID_1126_" d="m344.023 272.697c-5.522 0-10 4.477-10 10v13.333c0 5.523 4.478 10 10 10 5.523 0 10-4.477 10-10v-13.333c0-5.523-4.477-10-10-10z" fill="#4b4f4e" data-original="#000000" style="" class=""/><path id="XMLID_1128_" d="m384.023 266.03c5.523 0 10-4.477 10-10s-4.477-10-10-10h-13.333c-5.523 0-10 4.477-10 10s4.477 10 10 10z" fill="#4b4f4e" data-original="#000000" style="" class=""/><path id="XMLID_1129_" d="m294.023 256.03c0 5.523 4.478 10 10 10h13.333c5.522 0 10-4.477 10-10s-4.478-10-10-10h-13.333c-5.522 0-10 4.477-10 10z" fill="#4b4f4e" data-original="#000000" style="" class=""/><path id="XMLID_1130_" d="m55.401 183.909c0-9.399-3.66-18.235-10.307-24.882-3.906-3.905-10.236-3.905-14.143 0-3.905 3.905-3.905 10.237 0 14.143 5.922 5.922 5.922 15.557 0 21.479-6.646 6.646-10.307 15.482-10.307 24.882 0 9.399 3.66 18.235 10.307 24.882 1.953 1.953 4.512 2.929 7.071 2.929s5.118-.976 7.071-2.929c3.905-3.905 3.905-10.237 0-14.143-5.922-5.922-5.922-15.557 0-21.479 6.648-6.646 10.308-15.483 10.308-24.882z" fill="#4b4f4e" data-original="#000000" style="" class=""/><path id="XMLID_1132_" d="m337.031 357.348c-20.038 0-36.341 16.303-36.341 36.341 0 9.011-7.331 16.341-16.342 16.341-5.522 0-10 4.477-10 10s4.478 10 10 10c20.039 0 36.342-16.303 36.342-36.341 0-9.011 7.33-16.341 16.341-16.341 5.522 0 10-4.477 10-10s-4.477-10-10-10z" fill="#4b4f4e" data-original="#000000" style="" class=""/><path id="XMLID_1133_" d="m258.383 74.03c2.631 0 5.21-1.07 7.07-2.93s2.93-4.44 2.93-7.07-1.069-5.21-2.93-7.07c-1.86-1.86-4.43-2.93-7.07-2.93-2.63 0-5.21 1.07-7.069 2.93-1.86 1.86-2.931 4.44-2.931 7.07s1.07 5.21 2.931 7.07c1.859 1.86 4.439 2.93 7.069 2.93z" fill="#4b4f4e" data-original="#000000" style="" class=""/></g></g></g></svg>
